<svg width="32" height="32" viewBox="0 0 32 32" fill="none" xmlns="http://www.w3.org/2000/svg">
<g clip-path="url(#clip0)">
<path d="M3.05176e-05 3.71715C3.05176e-05 2.63969 0.360401 1.7508 1.08111 1.05049C1.80182 0.350142 2.73878 -1.52588e-05 3.89192 -1.52588e-05C5.02449 -1.52588e-05 5.94082 0.344744 6.64096 1.03433C7.36167 1.74544 7.72204 2.67201 7.72204 3.81412C7.72204 4.84846 7.37198 5.71039 6.67184 6.39997C5.95113 7.11108 5.00389 7.46664 3.83015 7.46664H3.79926C2.66669 7.46664 1.75036 7.11108 1.05022 6.39997C0.350085 5.68886 3.05176e-05 4.79458 3.05176e-05 3.71715ZM0.401575 31.9999V10.408H7.25872V31.9999H0.401575ZM11.0579 31.9999H17.9151V19.9434C17.9151 19.1892 17.9975 18.6073 18.1622 18.1979C18.4505 17.4653 18.8881 16.8457 19.4749 16.3394C20.0618 15.8329 20.798 15.5798 21.6834 15.5798C23.9897 15.5798 25.1429 17.2067 25.1429 20.4606V31.9999H32V19.6202C32 16.4309 31.2793 14.0121 29.8379 12.3636C28.3964 10.7151 26.4917 9.89088 24.1236 9.89088C21.4672 9.89088 19.3977 11.0868 17.9151 13.4788V13.5434H17.8842L17.9151 13.4788V10.408H11.0579C11.0991 11.0976 11.1197 13.2417 11.1197 16.8404C11.1197 20.439 11.0991 25.4922 11.0579 31.9999Z" fill="#A30000"/>
</g>
<defs>
<clipPath id="clip0">
<rect x="3.05176e-05" width="32" height="32" fill="white"/>
</clipPath>
</defs>
</svg>
