<svg width="24" height="24" viewBox="0 0 24 24" fill="none" xmlns="http://www.w3.org/2000/svg">
<g clip-path="url(#clip0)">
<path d="M5.49659 4.75925C9.0399 1.5541 14.3426 1.50509 17.9349 4.4309L15.0875 4.53872C14.72 4.55342 14.4357 4.85727 14.4504 5.22484C14.4651 5.5826 14.7592 5.86195 15.1121 5.86195C15.1219 5.86195 15.1268 5.86195 15.1366 5.86195L19.5081 5.70022C19.8659 5.68551 20.1452 5.39636 20.1452 5.0386V4.98959C20.1452 4.97979 20.1452 4.97489 20.1452 4.96509V4.96019L19.9835 0.637641C19.9688 0.270077 19.66 -0.0141722 19.2974 0.000530298C18.9298 0.0152328 18.6456 0.319085 18.6603 0.686649L18.7632 3.39682C16.9842 1.94127 14.7935 1.09832 12.4509 0.9807C9.54959 0.833675 6.76101 1.82855 4.60954 3.77908C1.64943 6.45985 0.39481 10.5374 1.33577 14.4188C1.40929 14.7227 1.67883 14.9236 1.97778 14.9236C2.03169 14.9236 2.0807 14.9187 2.13461 14.904C2.48747 14.8158 2.70801 14.458 2.61979 14.1052C1.79645 10.6942 2.89424 7.11166 5.49659 4.75925Z" fill="#FCFCFC"/>
<path d="M22.6643 9.58169C22.5761 9.22882 22.2183 9.00829 21.8654 9.0965C21.5126 9.18472 21.292 9.54248 21.3803 9.89534C22.2085 13.3063 21.1058 16.8888 18.5035 19.2412C16.6754 20.8928 14.3818 21.7064 12.098 21.7064C9.91716 21.7064 7.74118 20.9663 5.98668 19.5059L8.86838 19.2461C9.23104 19.2118 9.50059 18.8933 9.46628 18.5257C9.43198 18.1582 9.11342 17.8935 8.74586 17.9278L4.389 18.3199C4.02634 18.3542 3.75679 18.6727 3.7911 19.0403L4.18317 23.3972C4.21257 23.7402 4.50172 24 4.83988 24C4.85948 24 4.87909 24 4.89869 23.9951C5.26135 23.9608 5.5309 23.6422 5.49659 23.2746L5.26135 20.6233C7.04036 22.0641 9.22124 22.9022 11.5491 23.0198C11.7354 23.0296 11.9216 23.0345 12.1029 23.0345C14.8033 23.0345 17.3714 22.0445 19.3905 20.2214C22.3506 17.5407 23.6052 13.4681 22.6643 9.58169Z" fill="#FCFCFC"/>
</g>
<defs>
<clipPath id="clip0">
<rect width="24" height="24" fill="white"/>
</clipPath>
</defs>
</svg>
