<svg width="24" height="24" viewBox="0 0 24 24" fill="none" xmlns="http://www.w3.org/2000/svg">
<path d="M17.0258 15.8475L20.595 19.4158L19.4158 20.595L15.8475 17.0258C14.5198 18.0902 12.8683 18.6691 11.1667 18.6667C7.02666 18.6667 3.66666 15.3067 3.66666 11.1667C3.66666 7.02667 7.02666 3.66667 11.1667 3.66667C15.3067 3.66667 18.6667 7.02667 18.6667 11.1667C18.6691 12.8683 18.0902 14.5198 17.0258 15.8475ZM15.3542 15.2292C16.4118 14.1416 17.0024 12.6837 17 11.1667C17 7.94333 14.3892 5.33333 11.1667 5.33333C7.94333 5.33333 5.33333 7.94333 5.33333 11.1667C5.33333 14.3892 7.94333 17 11.1667 17C12.6837 17.0024 14.1416 16.4118 15.2292 15.3542L15.3542 15.2292V15.2292Z" fill="#FCFCFC"/>
</svg>
