<svg width="32" height="32" viewBox="0 0 32 32" fill="none" xmlns="http://www.w3.org/2000/svg">
<path d="M29.5493 8.87467C28.5314 9.32493 27.4519 9.62064 26.3467 9.752C27.5117 9.05525 28.3836 7.95869 28.8 6.66667C27.7067 7.31734 26.508 7.77334 25.2587 8.02C24.4195 7.12211 23.3071 6.52662 22.0946 6.32612C20.8821 6.12561 19.6372 6.33133 18.5537 6.91127C17.4701 7.49122 16.6085 8.41292 16.1028 9.53306C15.5971 10.6532 15.4757 11.909 15.7573 13.1053C13.5401 12.9942 11.3711 12.418 9.39104 11.4142C7.41098 10.4104 5.66416 9.0014 4.26399 7.27867C3.76838 8.12994 3.50793 9.09764 3.50933 10.0827C3.50933 12.016 4.49333 13.724 5.98933 14.724C5.10401 14.6961 4.23817 14.457 3.46399 14.0267V14.096C3.46426 15.3836 3.90982 16.6315 4.72512 17.6281C5.54043 18.6247 6.6753 19.3086 7.93733 19.564C7.11548 19.7867 6.25374 19.8195 5.41733 19.66C5.77315 20.7683 6.46667 21.7376 7.40078 22.4322C8.3349 23.1267 9.46283 23.5117 10.6267 23.5333C9.46997 24.4418 8.14556 25.1133 6.72917 25.5096C5.31277 25.9058 3.83216 26.019 2.37199 25.8427C4.92092 27.4819 7.88812 28.3522 10.9187 28.3493C21.176 28.3493 26.7853 19.852 26.7853 12.4827C26.7853 12.2427 26.7787 12 26.768 11.7627C27.8598 10.9736 28.8021 9.99603 29.5507 8.876L29.5493 8.87467Z" fill="#A30000"/>
</svg>
